<?xml version="1.0" encoding="iso-8859-1"?>
<!-- Uploaded to: SVG Repo, www.svgrepo.com, Generator: SVG Repo Mixer Tools -->
<svg fill="#000000" version="1.1" id="Capa_1" xmlns="http://www.w3.org/2000/svg" xmlns:xlink="http://www.w3.org/1999/xlink" 
	 viewBox="0 0 60 60" xml:space="preserve">
<g>
	<g>
		<path d="M18,23h2v-2c0-2.8,2.2-5,5-5h1.3l2.8,7.4c0.1,0.3,0.5,0.6,0.9,0.6s0.8-0.3,1.1-0.6l2.8-7.4H35c2.8,0,5,2.2,5,5v2h2v-2
			c0-3.9-3.1-7-7-7H25c-3.9,0-7,3.1-7,7L18,23L18,23z M30.1,20.2L28.5,16h3.2L30.1,20.2z"/>
		<rect x="29" y="26" width="2" height="2"/>
		<rect x="29" y="30" width="2" height="2"/>
		<path d="M29,13h2c2.8,0,5-2.2,5-5V5c0-2.8-2.2-5-5-5h-2c-2.8,0-5,2.2-5,5v3C24,10.8,26.2,13,29,13z M26,5c0-1.7,1.3-3,3-3h2
			c1.7,0,3,1.3,3,3v3c0,1.7-1.3,3-3,3h-2c-1.7,0-3-1.3-3-3V5z"/>
		<path d="M49,39H39c-3.9,0-7,3.1-7,7v14h2V46c0-2.8,2.2-5,5-5h10c2.8,0,5,2.2,5,5v14h2V46C56,42.1,52.9,39,49,39z"/>
		<rect x="37" y="49" width="2" height="11"/>
		<rect x="49" y="49" width="2" height="11"/>
		<path d="M21,39H11c-3.9,0-7,3.1-7,7v14h2V46c0-2.8,2.2-5,5-5h10c2.8,0,5,2.2,5,5v14h2V46C28,42.1,24.9,39,21,39z"/>
		<path d="M10,30v3c0,2.8,2.2,5,5,5h2c1.7,0,3.1-0.8,4-2h18c0.9,1.2,2.3,2,4,2h2c2.8,0,5-2.2,5-5v-3c0-2.8-2.2-5-5-5h-2
			c-2.8,0-5,2.2-5,5v3c0,0.3,0,0.7,0.1,1H37V24h-2v10H25V24h-2v10h-1.1c0.1-0.3,0.1-0.7,0.1-1v-3c0-2.8-2.2-5-5-5h-2
			C12.2,25,10,27.2,10,30z M40,30c0-1.7,1.3-3,3-3h2c1.7,0,3,1.3,3,3v3c0,1.7-1.3,3-3,3h-2c-1.7,0-3-1.3-3-3V30z M12,30
			c0-1.7,1.3-3,3-3h2c1.7,0,3,1.3,3,3v3c0,1.7-1.3,3-3,3h-2c-1.7,0-3-1.3-3-3V30z"/>
		<rect x="9" y="49" width="2" height="11"/>
		<rect x="21" y="49" width="2" height="11"/>
		<path d="M2,36h5v-2H1c-0.6,0-1,0.4-1,1v6c0,0.6,0.4,1,1,1h2v-2H2V36z"/>
		<path d="M59,34h-7v2h6v4h-2v2h3c0.6,0,1-0.4,1-1v-6C60,34.4,59.6,34,59,34z"/>
		<rect x="28" y="40" width="4" height="2"/>
		<rect x="48" y="4" width="7" height="2"/>
		<rect x="48" y="8" width="10" height="2"/>
		<rect x="48" y="12" width="10" height="2"/>
		<rect x="5" y="4" width="7" height="2"/>
		<rect x="2" y="8" width="10" height="2"/>
		<rect x="2" y="12" width="10" height="2"/>
		<rect x="48" y="16" width="2" height="2"/>
		<rect x="52" y="16" width="2" height="2"/>
		<rect x="56" y="16" width="2" height="2"/>
		<rect x="2" y="16" width="2" height="2"/>
		<rect x="6" y="16" width="2" height="2"/>
		<rect x="10" y="16" width="2" height="2"/>
		<path d="M42,6h3V4h-4c-0.6,0-1,0.4-1,1v7h2V6z"/>
		<path d="M18,12h2V5c0-0.6-0.4-1-1-1h-4v2h3V12z"/>
	</g>
</g>
</svg>