<?xml version="1.0" encoding="iso-8859-1"?>
<!-- Uploaded to: SVG Repo, www.svgrepo.com, Generator: SVG Repo Mixer Tools -->
<!DOCTYPE svg PUBLIC "-//W3C//DTD SVG 1.1//EN" "http://www.w3.org/Graphics/SVG/1.1/DTD/svg11.dtd">
<svg fill="#000000" version="1.1" id="Capa_1" xmlns="http://www.w3.org/2000/svg" xmlns:xlink="http://www.w3.org/1999/xlink" 
	 width="800px" height="800px" viewBox="0 0 31.666 31.666"
	 xml:space="preserve">
<g>
	<g>
		<path d="M30.073,17.717c0-0.881-0.715-1.595-1.596-1.595H3.188c-0.881,0-1.595,0.714-1.595,1.595v1.014h1.968V29.3
			c0,1.308,1.06,2.366,2.365,2.366h19.862c1.308,0,2.365-1.061,2.365-2.366V18.73h1.92V17.717L30.073,17.717z"/>
		<path d="M21.858,11.793h1.436c1.054,0,1.91-0.866,1.91-1.919V1.54c0-0.85-0.697-1.54-1.549-1.54s-1.551,0.69-1.551,1.54v7.154
			h-1.357c-0.373-0.246-0.817-0.393-1.297-0.393h-7.216c-1.335,0-2.428,1.102-2.428,2.437v3.81h12.052V11.793z"/>
		<circle cx="15.844" cy="3.463" r="3.462"/>
	</g>
</g>
</svg>